<svg xmlns="http://www.w3.org/2000/svg" width="552" height="552" fill="none"><path fill="#e0e0e0" d="M515.447 349.084H334.512V244.381h180.935zm-179.831-1.104h178.727V245.485H335.616z"/><path fill="#f0f0f0" d="M478.12 300.21H358.745v3.5H478.12zM486.345 313.259h-127.6v3.82h127.6zM486.345 326.464h-127.6v3.819h127.6zM400.465 281.255h-41.72v9.086h41.72z"/><path fill="#e0e0e0" d="M514.895 244.933H335.097v16.67h179.798z"/><path fill="#fff" d="M501.061 259.109c-.232-.221 2.087-3.014 5.167-6.238s5.785-5.663 6.006-5.454c.221.21-2.087 3.014-5.167 6.249s-5.785 5.663-6.006 5.443"/><path fill="#fff" d="M512.256 259.108c-.221.221-2.915-2.208-6.006-5.442-3.091-3.235-5.398-6.028-5.167-6.249.232-.221 2.915 2.208 6.006 5.454 3.091 3.245 5.377 6.017 5.167 6.237"/><path fill="#e6e6e6" d="M292.803 37.5908H113.005V141.201h179.798z"/><path fill="#f0f0f0" d="M256.04 92.8793H136.664v3.4997H256.04zM264.264 105.929h-127.6v3.819h127.6zM264.264 119.132h-127.6v3.82h127.6zM178.384 73.9234h-41.72v9.0859h41.72z"/><path fill="#e0e0e0" d="M292.803 37.5908H113.005v16.6704h179.798z"/><path fill="#fff" d="M278.362 51.6891c-.231-.2098 2.087-3.014 5.167-6.2376 3.08-3.2237 5.785-5.6635 6.006-5.4427s-2.087 3.0139-5.167 6.2376c-3.08 3.2236-5.785 5.6414-6.006 5.4427"/><path fill="#fff" d="M289.535 51.6887c-.221.2208-2.915-2.208-6.006-5.4427s-5.398-6.0168-5.166-6.2376c.231-.2208 2.914 2.208 6.005 5.4427s5.399 6.0278 5.167 6.2376"/><path fill="#e0e0e0" d="M224.708 230.062H43.8066V125.348H224.708zm-179.7974-1.104H223.604V126.452H44.9106z"/><path fill="#f0f0f0" d="M187.393 181.188H68.0173v3.5H187.393zM195.618 194.238H68.0173v3.819H195.618zM195.618 207.441H68.0173v3.82H195.618zM109.737 162.232H68.0173v9.086h41.7197z"/><path fill="#e0e0e0" d="M224.156 125.9H44.3586v16.67H224.156z"/><path fill="#e6e6e6" d="M433.485 254.052H221.186v190.065h212.299z"/><path fill="#f0f0f0" d="M231.862 194.182H65.5554v172.787H231.862z"/><path fill="#e0e0e0" d="M231.862 194.182H65.5554v18.823H231.862z"/><path fill="#fff" d="M79.2892 203.401a3.4886 3.4886 0 0 1-.6616 1.894c-.4012.553-.9561.976-1.5956 1.216-.6395.241-1.3356.288-2.0018.137a3.4957 3.4957 0 0 1-1.7459-.989c-.4726-.494-.7898-1.115-.9124-1.787-.1225-.672-.045-1.366.223-1.994.268-.629.7146-1.165 1.2845-1.542s1.2379-.578 1.9212-.579c.9448.024 1.8421.42 2.4958 1.102.6537.683 1.0106 1.597.9928 2.542M93.4535 203.401c-.0281.685-.2574 1.348-.6591 1.904-.4017.557-.9583.983-1.6004 1.226-.642.242-1.3413.291-2.0107.139s-1.2795-.497-1.7542-.992a3.504 3.504 0 0 1-.9158-1.796 3.501 3.501 0 0 1 .2265-2.003c.2702-.631.7201-1.168 1.2935-1.546.5735-.377 1.2452-.577 1.9316-.576.9448.024 1.8421.42 2.4958 1.102.6537.683 1.0106 1.597.9928 2.542M107.618 203.401c-.028.685-.258 1.348-.659 1.904-.402.557-.959.983-1.601 1.226-.642.242-1.341.291-2.01.139-.67-.152-1.28-.497-1.755-.992-.474-.496-.793-1.121-.915-1.796-.123-.675-.044-1.372.226-2.003s.72-1.168 1.294-1.546c.573-.377 1.245-.577 1.931-.576.945.024 1.842.42 2.496 1.102.654.683 1.011 1.597.993 2.542"/><path fill="#f0f0f0" d="M491.699 75.3807H279.4V286.973h212.299z"/><path fill="#e0e0e0" d="M491.699 75.3807H279.4v24.7843h212.299z"/><path fill="#fff" d="M297.484 87.5248c-.039.901-.342 1.7708-.871 2.5013a4.607 4.607 0 0 1-2.104 1.6077c-.844.3181-1.763.3814-2.643.182-.879-.1995-1.681-.6529-2.305-1.3039a4.6033 4.6033 0 0 1-1.205-2.3583 4.609 4.609 0 0 1 .293-2.6321c.354-.8297.943-1.5373 1.695-2.0349s1.634-.7633 2.536-.7642c1.247.029 2.431.5506 3.294 1.4506.862.9001 1.333 2.1052 1.31 3.3518M314.783 84.2791c.613.6647 1.015 1.4947 1.159 2.3868.144.892.022 1.8066-.351 2.6298-.372.8231-.979 1.5185-1.744 1.9994s-1.654.726-2.557.705a4.6057 4.6057 0 0 1-2.523-.8236c-.741-.516-1.315-1.2389-1.648-2.0785-.334-.8397-.413-1.7589-.228-2.6433s.626-1.6947 1.268-2.3301c.9-.8562 2.103-1.3208 3.344-1.2918 1.242.029 2.422.5491 3.28 1.4463M334.777 87.5248c-.039.901-.342 1.7708-.871 2.5013a4.607 4.607 0 0 1-2.104 1.6077c-.844.3181-1.763.3814-2.643.182-.879-.1995-1.681-.6529-2.305-1.3039a4.6033 4.6033 0 0 1-1.205-2.3583 4.609 4.609 0 0 1 .293-2.6321c.354-.8297.943-1.5373 1.695-2.0349s1.634-.7633 2.536-.7642c1.247.029 2.431.5506 3.294 1.4506.862.9001 1.333 2.1052 1.31 3.3518"/><path fill="#263238" d="M445.839 500.256c0 .154-76.661.287-171.197.287-94.535 0-171.23-.133-171.23-.287 0-.155 76.65-.287 171.23-.287s171.197.143 171.197.287"/><path fill="#b92b24" d="M371.143 365.104c-17.057-11.912-20.921-34.026-20.248-53.909.111-3.312-.254-6.822 1.325-9.726 1.579-2.903 5.266-4.902 8.236-3.511 2.462 1.16 3.533 4.03 4.913 6.404a19.3864 19.3864 0 0 0 7.783 7.43c2.109 1.104 4.725 1.766 6.812.618 2.87-1.579 3.201-5.52 3.179-8.832 0-6.161-.037-12.313-.11-18.459-.199-3.3.137-6.61.993-9.804 1.027-3.135 3.312-6.038 6.437-6.922 3.124-.883 7.021.939 7.728 4.162.121 1.366.155 2.738.099 4.107.088 1.38.729 2.893 2.02 3.312 1.292.42 2.639-.541 3.633-1.512 3.4-3.312 5.718-7.629 7.871-11.89 2.153-4.262 4.262-8.645 7.353-12.277s7.363-6.513 12.144-6.789c4.78-.276 9.759 2.66 10.951 7.297 1.193 4.637-1.512 9.373-4.416 13.138a73.822 73.822 0 0 1-15.334 14.628c-1.13.617-2.032 1.58-2.572 2.749-.718 2.208 1.368 4.416 3.543 5.111 2.462.817 5.134.563 7.728.872 2.595.309 5.355 1.435 6.337 3.864 1.347 3.379-1.479 6.911-4.25 9.23a63.334 63.334 0 0 1-18.68 10.786c-2.429.883-4.979 1.667-6.944 3.367s-3.135 4.67-1.954 6.999c1.181 2.33 4.217 3.07 6.768 2.595 2.55-.475 4.813-1.844 7.242-2.76 4.537-1.711 10.388-1.402 13.248 2.517.886 1.35 1.446 2.887 1.638 4.49.191 1.604.009 3.23-.534 4.75-1.105 3.027-2.806 5.801-5.001 8.159-7.231 8.639-16.626 15.203-27.225 19.022-10.521 3.643-20.269 4.637-30.724.806"/><path fill="#263238" d="M437.405 250.232s-.099.111-.32.309l-.983.873c-.861.772-2.131 1.899-3.731 3.389-4.539 4.214-8.754 8.764-12.608 13.612-2.462 3.058-5.012 6.525-7.728 10.29-2.716 3.764-5.52 7.827-8.302 12.144-2.966 4.552-5.682 9.262-8.137 14.109-1.28 2.528-2.406 5.166-3.565 7.86l-3.423 8.225c-4.511 10.36-8.44 20.964-11.769 31.762-2.681 8.835-4.529 17.902-5.52 27.081-.642 6.195-.745 12.434-.309 18.647.177 2.208.343 3.897.497 5.045.066.552.111.994.155 1.314v.452c-.048-.143-.081-.291-.1-.441-.055-.32-.121-.751-.209-1.303-.199-1.104-.409-2.848-.608-5.056-.532-6.225-.495-12.484.111-18.702.929-9.219 2.737-18.328 5.398-27.203 3.301-10.828 7.219-21.459 11.736-31.839l3.511-8.192c1.159-2.682 2.296-5.343 3.588-7.882 2.471-4.862 5.209-9.583 8.202-14.142 2.827-4.416 5.675-8.413 8.358-12.144 2.682-3.732 5.277-7.221 7.728-10.268 3.893-4.835 8.164-9.353 12.773-13.513 1.634-1.468 2.936-2.572 3.82-3.312l1.026-.828c.126-.109.263-.205.409-.287"/><path fill="#263238" d="M395.232 304.704c-.156-.455-.263-.925-.32-1.402-.177-.917-.376-2.208-.607-3.886-.475-3.312-.961-7.85-1.48-12.873s-1.104-9.572-1.589-12.85c-.254-1.634-.475-2.948-.63-3.864-.12-.469-.183-.951-.187-1.436.19.443.327.906.408 1.38.243.906.519 2.208.828 3.853.629 3.312 1.248 7.817 1.766 12.851.519 5.034.961 9.45 1.303 12.884.166 1.545.309 2.859.42 3.908.085.473.115.955.088 1.435M437.714 296.777c-.537.117-1.084.183-1.634.199-1.104.099-2.672.232-4.615.452-3.886.42-9.229 1.193-15.091 2.297-5.863 1.104-11.129 2.351-14.915 3.312-1.888.485-3.412.927-4.416 1.225-.537.191-1.092.324-1.656.398.51-.257 1.042-.468 1.589-.63 1.038-.364 2.539-.872 4.416-1.413 3.765-1.104 9.031-2.418 14.915-3.544 4.985-.953 10.015-1.653 15.07-2.097 1.954-.166 3.533-.232 4.637-.254.567-.039 1.136-.02 1.7.055M376.795 351.866c-.117-.159-.214-.334-.287-.518l-.728-1.535c-.63-1.336-1.48-3.312-2.495-5.73-2.054-4.857-4.67-11.658-7.452-19.209-2.783-7.552-5.344-14.352-7.287-19.265-.949-2.385-1.733-4.339-2.318-5.796l-.619-1.579c-.085-.182-.145-.375-.176-.574.118.16.214.334.287.519l.729 1.534c.618 1.336 1.479 3.312 2.495 5.73 2.053 4.858 4.669 11.658 7.452 19.21 2.782 7.551 5.343 14.352 7.286 19.265.949 2.384 1.733 4.338 2.307 5.796.254.629.464 1.104.63 1.578.085.182.145.376.176.574"/><path fill="#263238" d="M433.188 333.684c-.177.101-.366.179-.563.232l-1.634.552-6.039 1.954c-5.101 1.656-12.144 4.018-19.872 6.624-7.728 2.605-14.805 4.924-19.939 6.469-2.561.784-4.647 1.38-6.094 1.778l-1.667.43c-.193.062-.393.102-.596.122.177-.102.366-.18.563-.232l1.634-.552 6.039-1.954c5.101-1.656 12.144-4.019 19.872-6.624 7.728-2.606 14.794-4.924 19.927-6.47 2.573-.784 4.648-1.38 6.105-1.777l1.667-.431c.194-.061.394-.102.597-.121"/><path fill="#b92b24" d="m410.18 65.8867-5.685 2.0314-2.44-7.43c-4.483-13.7006-18.768-20.976-31.895-16.3502-13.126 4.6258-20.115 19.6512-15.633 33.3518l2.44 7.43-5.707 2.0424c-2.177.8441-3.944 2.4946-4.935 4.6082s-1.13 4.5279-.387 6.7409l15.821 48.3438c.328 1.096.873 2.114 1.603 2.995.73.88 1.629 1.605 2.644 2.132 1.016.526 2.127.843 3.267.931 1.14.089 2.287-.053 3.371-.416l58.921-21.076c2.205-.842 3.997-2.507 5-4.645 1.003-2.137 1.138-4.58.376-6.814L421.11 71.4177c-.337-1.0924-.891-2.1058-1.628-2.9797-.737-.8738-1.643-1.5902-2.663-2.1064a8.506 8.506 0 0 0-3.274-.8981 8.513 8.513 0 0 0-3.365.4532m-44.911 7.728c-1.208-3.5624-.991-7.4542.606-10.8602s4.45-6.0618 7.961-7.411c1.734-.5933 3.57-.8312 5.398-.6995 1.828.1316 3.611.6301 5.242 1.4658 1.631.8356 3.077 1.9912 4.251 3.3978 1.175 1.4066 2.054 3.0355 2.586 4.7893l2.429 7.43-26.044 9.3177zm33.12 42.9013 4.041 12.343c.074.247.05.514-.067.744s-.318.407-.562.492l-5.664 2.021a.9086.9086 0 0 1-.672-.076c-.206-.111-.36-.298-.432-.521l-4.074-12.287c-2.246-.122-4.401-.928-6.177-2.309s-3.087-3.272-3.759-5.419c-.96-2.838-.785-5.938.489-8.651 1.274-2.712 3.548-4.8261 6.345-5.8997 1.381-.472 2.844-.661 4.299-.5558 1.456.1051 2.876.5023 4.175 1.1678s2.451 1.5858 3.387 2.7057a10.871 10.871 0 0 1 2.061 3.814c.71 2.181.769 4.522.169 6.736s-1.833 4.204-3.548 5.728z"/><path fill="#263238" d="M404.241 67.7857c0 .1545-10.544 4.1179-23.659 8.832-13.116 4.714-23.813 8.5008-23.869 8.3904-.055-.1104 10.544-4.1069 23.67-8.832 13.127-4.7252 23.802-8.534 23.858-8.3904M416.76 69.8173c.049.0958.089.1955.121.2981.089.2208.188.5078.32.8611.288.8059.685 1.921 1.182 3.312l4.239 12.3427c1.767 5.233 3.875 11.4375 6.216 18.3268 1.104 3.455 2.406 7.054 3.621 10.841.65 1.951.931 4.007.828 6.061-.094 1.068-.398 2.107-.894 3.058-.531.947-1.24 1.783-2.087 2.462-1.706 1.245-3.599 2.21-5.608 2.859l-5.686 2.043-10.764 3.853-18.227 6.491-12.31 4.328-3.312 1.104-.883.287c-.094.042-.195.068-.298.077 0 0 .088 0 .276-.132l.861-.343 3.312-1.247 12.244-4.504 18.194-6.624 10.741-3.887 5.686-2.053c1.952-.623 3.791-1.559 5.443-2.771.788-.63 1.448-1.406 1.943-2.285.467-.879.749-1.845.828-2.838.101-1.979-.168-3.96-.795-5.84-1.192-3.753-2.451-7.385-3.588-10.841-2.296-6.9-4.416-13.1266-6.094-18.3595-1.678-5.233-3.091-9.4392-4.063-12.3979-.464-1.4463-.817-2.5724-1.104-3.3893l-.265-.8832a1.043 1.043 0 0 1-.077-.2098"/><path fill="#263238" d="M385.671 54.5928s-.585-.2871-1.667-.7287a14.706 14.706 0 0 0-4.824-.9715c-2.448-.0839-4.884.3761-7.132 1.3469-2.734 1.2089-5.072 3.1641-6.746 5.6414-1.684 2.4703-2.588 5.3895-2.594 8.3794.023 2.4506.395 4.8854 1.104 7.2312.574 2.0093 1.17 3.6101 1.568 4.7251.234.5664.426 1.1494.574 1.7443-.314-.5295-.576-1.0877-.784-1.667-.453-1.104-1.104-2.6717-1.744-4.692a25.116 25.116 0 0 1-1.27-7.3416c-.029-3.1029.896-6.1398 2.65-8.6995 1.731-2.5678 4.165-4.5836 7.01-5.8071 2.319-.9761 4.83-1.4067 7.342-1.2585 1.687.086 3.344.4788 4.89 1.1592.414.1907.812.4121 1.193.6624.157.069.302.1621.43.276M386.179 97.7925c.176-.1067.361-.199.552-.276.553-.2493 1.125-.4524 1.711-.6072.931-.2746 1.891-.4377 2.86-.4857 1.318-.0709 2.636.1283 3.875.5851 2.826.9936 5.42 3.8753 6.701 7.7283.614 2.067.614 4.269 0 6.337-.681 2.244-1.901 4.287-3.555 5.95l.066-.298c1.469 4.03 3.07 8.402 4.726 12.961l.099.276-.276.099-2.528.839-5.52 1.844-.276.088-.089-.276c-1.512-4.57-3.168-8.832-4.416-13.016l.243.188c-2.158-.179-4.216-.989-5.917-2.329-1.539-1.186-2.802-2.693-3.699-4.416-.809-1.529-1.212-3.24-1.17-4.968.051-1.767.493-3.501 1.292-5.078.8-1.576 1.938-2.9565 3.334-4.0415.574-.4663 1.219-.8389 1.91-1.104-.624.37-1.228.7717-1.811 1.2034-1.533 1.2971-2.707 2.9661-3.411 4.8461-.604 1.419-.887 2.953-.827 4.493.059 1.541.458 3.049 1.169 4.417.882 1.658 2.114 3.104 3.61 4.239a10.5056 10.5056 0 0 0 5.642 2.208h.187l.056.166c1.214 4.107 2.881 8.401 4.416 12.994l-.365-.177 5.52-1.844 2.517-.85-.176.376c-1.645-4.56-3.235-8.943-4.692-12.972v-.166l.132-.132c1.605-1.595 2.802-3.553 3.489-5.708.585-1.978.585-4.083 0-6.061-1.203-3.709-3.687-6.5246-6.381-7.5182-1.193-.4598-2.466-.6739-3.743-.6293-.953.0218-1.902.1515-2.826.3864-1.645.4085-2.418.7838-2.429.7286"/><path fill="#455a64" d="m352.055 416.561-110.279-.508c-6.368-.035-12.463-2.596-16.944-7.121-4.482-4.525-6.984-10.643-6.958-17.012l1.171-276.453c.013-3.155.647-6.276 1.868-9.186 1.22-2.91 3.001-5.551 5.243-7.7714a24.007 24.007 0 0 1 7.819-5.1715 24.012 24.012 0 0 1 9.203-1.7833l110.268.5078c6.368.0321 12.464 2.5906 16.947 7.1135 4.484 4.5229 6.989 10.6399 6.965 17.0089l-1.17 276.442c-.013 3.156-.648 6.279-1.867 9.189-1.22 2.911-3.002 5.554-5.243 7.776a24.028 24.028 0 0 1-7.818 5.178c-2.921 1.196-6.049 1.804-9.205 1.791"/><path fill="#fff" d="M353.28 101.568h-21.373c-.698.013-1.386.163-2.025.442s-1.218.681-1.701 1.183c-.484.502-.865 1.095-1.119 1.745-.255.649-.379 1.342-.366 2.039v3.875c.013.697-.112 1.39-.366 2.039-.255.648-.636 1.24-1.12 1.742-.484.501-1.062.902-1.701 1.18-.64.278-1.327.427-2.024.438l-41.665-.188c-1.41-.037-2.747-.633-3.717-1.655-.971-1.023-1.496-2.389-1.461-3.798v-3.875c.036-1.408-.488-2.773-1.456-3.795-.969-1.022-2.303-1.619-3.711-1.659h-7.518l-18.713-.089c-4.451-.026-8.731 1.712-11.903 4.835-3.172 3.122-4.977 7.374-5.021 11.825l-1.104 269.839c-.01 2.209.415 4.397 1.25 6.441.836 2.044 2.066 3.903 3.62 5.471 1.554 1.569 3.402 2.816 5.438 3.67 2.036.855 4.221 1.3 6.429 1.31l110.046.508c2.21.01 4.4-.415 6.445-1.252 2.045-.836 3.906-2.067 5.475-3.622 1.57-1.555 2.818-3.404 3.672-5.441.855-2.038 1.301-4.224 1.311-6.433l1.104-269.84c.026-4.463-1.721-8.754-4.857-11.93-3.137-3.176-7.406-4.976-11.869-5.005"/><path fill="#b92b24" d="m338.475 369.089-81.828-.353c-.85 0-1.535-.928-1.524-2.054l.089-21.406c0-1.104.695-2.054 1.545-2.054l81.829.376c.471.081.892.341 1.176.726s.408.864.347 1.338l-.077 21.385c0 1.137-.707 2.053-1.557 2.042"/><path fill="#e8e8e3" d="M283.22 353.686c-.038-.323-.193-.574-.465-.752-.272-.179-.606-.268-1.001-.268-.289 0-.542.047-.759.14-.214.094-.382.222-.503.386-.119.164-.179.35-.179.558 0 .174.042.324.124.449.085.124.194.227.326.31.131.08.269.147.414.2.145.051.277.093.398.125l.664.178c.17.045.359.107.567.185.21.079.411.186.602.322.194.134.353.306.479.517.125.21.188.468.188.774 0 .353-.093.672-.278.957-.182.284-.45.511-.803.679-.351.167-.777.251-1.278.251-.468 0-.873-.075-1.215-.226-.34-.151-.608-.361-.803-.631-.194-.27-.303-.583-.329-.941h.817c.021.247.104.451.248.613q.2205.2385.555.357c.225.076.467.114.727.114.302 0 .572-.049.813-.146.24-.1.43-.238.57-.415.141-.178.211-.387.211-.625 0-.216-.061-.393-.182-.529s-.281-.246-.478-.331c-.198-.085-.411-.16-.641-.223l-.803-.23c-.51-.147-.914-.356-1.212-.628-.297-.272-.446-.628-.446-1.068 0-.365.099-.684.296-.956.2-.274.468-.487.804-.638.338-.153.715-.229 1.131-.229.421 0 .795.075 1.123.226q.4905.2235.777.612c.194.259.296.554.306.883zm2.945-1.632v6.529h-.79v-6.529zm6.048 2.04c-.07-.214-.162-.407-.277-.577-.113-.172-.248-.319-.405-.44-.155-.121-.331-.213-.529-.277s-.415-.096-.65-.096q-.5805 0-1.056.3c-.316.2-.568.494-.755.883s-.281.866-.281 1.431c0 .566.095 1.043.284 1.432s.445.683.768.883c.323.199.687.299 1.091.299.374 0 .703-.079.988-.239.287-.161.51-.389.669-.682.162-.295.243-.643.243-1.042l.242.051h-1.964v-.702h2.487v.702c0 .537-.115 1.005-.345 1.402-.227.398-.542.706-.943.925-.4.217-.859.325-1.377.325q-.867 0-1.524-.408-.654-.408-1.02-1.161c-.243-.501-.364-1.096-.364-1.785 0-.516.069-.98.207-1.393.141-.414.338-.767.593-1.058s.557-.514.906-.67c.348-.155.732-.232 1.151-.232.344 0 .665.052.962.156.3.102.567.247.8.437.236.187.433.411.59.672.157.26.266.548.325.864zm7.386-2.04v6.529h-.765l-3.558-5.126h-.064v5.126h-.79v-6.529h.765l3.57 5.139h.064v-5.139zm2.372 0v6.529h-.79v-6.529zm6.762 0v6.529h-.765l-3.557-5.126h-.064v5.126h-.791v-6.529h.765l3.571 5.139h.064v-5.139z"/><path fill="#b92b24" d="m272.969 180.89-28.395-.129-.024 5.211 28.395.129z"/><path fill="#000" d="m272.969 180.89-28.395-.129-.024 5.211 28.395.129z" opacity=".1"/><path fill="#e0e0e0" d="M356.206 212.884c.223-.022.442-.074.651-.154.306-.12.571-.323.767-.587.195-.263.312-.577.337-.904v-14.661c.072-.503-.038-1.016-.309-1.446-.152-.206-.35-.375-.578-.491-.228-.117-.48-.18-.736-.183h-17.675l-92.338-.342c-.237-.004-.471.049-.682.155s-.394.261-.533.452c-.266.432-.368.946-.287 1.447v13.248a8.666 8.666 0 0 0 0 1.545c.058.221.166.425.315.597.15.172.336.308.546.397.218.086.451.128.685.121h5.619l24.52.133 41.51.254 27.987.22 7.606.089h2.65-38.243l-41.51-.133-24.52-.099h-5.619c-.309.012-.618-.04-.906-.155-.29-.124-.549-.313-.755-.552-.207-.239-.356-.522-.437-.828-.064-.289-.086-.587-.066-.883v-14.065c-.021-.294-.021-.589 0-.883.041-.325.167-.633.364-.894.191-.267.443-.483.735-.631s.616-.223.943-.219l92.339.508 15.953.11h1.722c.303 0 .602.074.871.214s.501.343.675.592c.311.48.436 1.057.353 1.623v7.054c0 3.312-.077 5.851-.1 7.618-.027.339-.15.664-.355.936-.206.272-.484.48-.804.598-.209.13-.449.199-.695.199"/><path fill="#b92b24" d="M305.035 199.658h-51.932v4.869h51.932z"/><path fill="#fff" d="M305.035 199.658h-51.932v4.869h51.932z" opacity=".2"/><path fill="#b92b24" d="m272.775 228.427-28.395-.129-.023 5.211 28.394.129z"/><path fill="#000" d="m272.775 228.427-28.395-.129-.023 5.211 28.394.129z" opacity=".1"/><path fill="#e0e0e0" d="M355.488 260.422c.223-.027.444-.068.662-.121.309-.098.593-.261.832-.479.24-.217.431-.483.559-.78.174-.445.242-.925.199-1.402v-13.171a2.369 2.369 0 0 0-.32-1.457c-.272-.45-.701-.784-1.203-.938-.55-.098-1.11-.128-1.667-.089h-15.887l-92.018-.342c-.495.001-.973.182-1.345.509-.371.327-.611.778-.676 1.269v13.248c-.041.516-.019 1.035.067 1.545.137.448.421.837.805 1.104.408.259.887.383 1.369.354h4.726l24.431.121 41.367.254 27.887.221 7.584.088h2.639-38.11L276 260.312l-24.432-.088h-4.802c-.597.035-1.19-.124-1.689-.453-.502-.348-.869-.859-1.038-1.446-.099-.561-.128-1.132-.088-1.701v-13.248c.08-.631.388-1.211.866-1.632.477-.42 1.092-.653 1.728-.653l92.019.508 15.886.121a6.846 6.846 0 0 1 1.767.122c.573.187 1.057.581 1.358 1.104.285.486.409 1.051.353 1.612v13.226c.04.493-.04.989-.232 1.446-.143.305-.351.575-.608.792s-.558.376-.882.466c-.242.02-.484-.002-.718-.066"/><path fill="#b92b24" d="m272.561 278.029-28.395-.129-.023 5.211 28.394.128z"/><path fill="#000" d="m272.561 278.029-28.395-.129-.023 5.211 28.394.128z" opacity=".1"/><path fill="#e0e0e0" d="M355.267 310.003c.223-.026.445-.067.663-.121.307-.098.589-.26.829-.475s.431-.478.562-.773c.173-.446.241-.926.198-1.402V294.05a2.369 2.369 0 0 0-.32-1.457c-.279-.442-.705-.77-1.203-.927-.55-.102-1.11-.136-1.667-.1h-15.887l-92.018-.342c-.495.001-.973.182-1.344.509-.372.327-.612.778-.676 1.268v13.248c-.042.513-.019 1.028.066 1.535.132.45.417.841.806 1.104.405.265.886.389 1.369.353h4.802l24.432.133 41.366.254 27.887.22 7.585.089h2.639-38.111l-41.366-.122-24.432-.099h-4.802c-.598.04-1.192-.119-1.689-.453-.503-.348-.869-.859-1.038-1.446-.099-.561-.129-1.132-.089-1.7v-13.303c.078-.631.384-1.211.86-1.632.476-.42 1.089-.653 1.724-.654l92.018.508 15.887.122c.591-.037 1.185.004 1.766.121.574.188 1.058.581 1.358 1.104.286.486.409 1.051.353 1.612v13.226c.043.494-.037.99-.231 1.446-.144.305-.351.575-.608.792-.258.217-.559.376-.883.467-.259.088-.535.115-.806.077"/><path fill="#b92b24" d="m303.927 248.573-51.932-.236-.022 4.869 51.932.236z"/><path fill="#fff" d="m303.927 248.573-51.932-.236-.022 4.869 51.932.236z" opacity=".2"/><path fill="#b92b24" d="M256.691 300.994c-.033.445-.195.869-.467 1.222-.271.353-.641.618-1.062.763s-.875.163-1.306.051c-.431-.111-.821-.346-1.119-.676-.299-.33-.494-.741-.562-1.181s-.005-.89.181-1.295c.186-.404.487-.745.865-.981.378-.235.817-.354 1.262-.342.615.034 1.192.309 1.605.766.414.457.63 1.058.603 1.673M263.724 301.027c.021.312-.021.624-.125.918-.105.294-.268.564-.481.792s-.47.41-.756.534c-.287.125-.595.189-.907.189s-.621-.064-.907-.189c-.286-.124-.544-.306-.756-.534a2.27 2.27 0 0 1-.481-.792c-.104-.294-.147-.606-.125-.918-.022-.311.021-.623.125-.917a2.27 2.27 0 0 1 .481-.792c.212-.228.47-.41.756-.535.286-.124.595-.188.907-.188s.62.064.907.188c.286.125.543.307.756.535s.376.498.481.792c.104.294.146.606.125.917M270.767 301.061c-.033.444-.195.868-.467 1.221-.271.353-.641.618-1.062.763s-.875.163-1.306.052c-.432-.112-.821-.347-1.119-.677-.299-.33-.494-.741-.562-1.181s-.005-.89.181-1.295c.186-.404.487-.745.865-.981.378-.235.817-.354 1.262-.342.614.037 1.189.313 1.602.769s.63 1.056.606 1.671M277.8 301.094c-.033.444-.195.869-.467 1.221-.272.353-.641.618-1.062.763s-.876.163-1.307.052-.82-.346-1.119-.677c-.299-.33-.494-.74-.562-1.18-.067-.44-.004-.891.182-1.295.186-.405.487-.746.865-.981.378-.236.816-.355 1.262-.343.614.037 1.189.313 1.601.769.413.456.631 1.056.607 1.671M284.832 301.116c-.03.444-.191.87-.461 1.225-.271.354-.64.621-1.061.767-.421.147-.876.166-1.308.056s-.822-.344-1.122-.674c-.299-.33-.496-.74-.564-1.181-.069-.44-.006-.891.18-1.297.186-.405.486-.746.865-.982.378-.236.817-.355 1.263-.343.612.037 1.186.312 1.598.765.412.454.631 1.051.61 1.664M291.876 301.149c-.031.442-.189.866-.457 1.22-.268.353-.634.62-1.052.769-.418.148-.87.171-1.301.066-.43-.106-.821-.335-1.123-.659-.303-.325-.504-.73-.578-1.167-.075-.438-.02-.887.157-1.293.178-.407.47-.753.841-.995.372-.242.806-.371 1.249-.37.622.023 1.209.292 1.634.747.424.455.65 1.06.63 1.682M298.908 301.182c.022.311-.021.624-.125.918s-.268.563-.481.792c-.212.228-.47.41-.756.534-.286.125-.595.189-.907.189s-.62-.064-.907-.189c-.286-.124-.543-.306-.756-.534-.213-.229-.376-.498-.48-.792-.105-.294-.147-.607-.125-.918-.022-.311.02-.623.125-.918.104-.294.267-.563.48-.791.213-.229.47-.41.756-.535.287-.124.595-.188.907-.188s.621.064.907.188c.286.125.544.306.756.535.213.228.377.497.481.791.104.295.147.607.125.918M305.94 301.215c-.03.442-.189.866-.457 1.22-.268.353-.633.62-1.051.769-.418.148-.87.171-1.301.066-.431-.106-.821-.335-1.123-.659-.303-.325-.504-.73-.578-1.167-.075-.438-.02-.887.157-1.293.178-.407.47-.753.841-.995.372-.242.806-.371 1.249-.37.622.023 1.209.292 1.634.747.424.455.65 1.06.629 1.682M312.973 301.248c-.03.445-.191.871-.461 1.225-.271.355-.64.621-1.061.768-.421.146-.876.166-1.308.056s-.822-.344-1.122-.674-.496-.741-.564-1.181c-.069-.441-.006-.892.18-1.297s.486-.747.865-.983c.378-.235.817-.354 1.263-.343.612.038 1.185.312 1.598.766.412.454.631 1.05.61 1.663"/><g fill="#fff" opacity=".2"><path d="M256.691 300.994c-.033.445-.195.869-.467 1.222-.271.353-.641.618-1.062.763s-.875.163-1.306.051c-.431-.111-.821-.346-1.119-.676-.299-.33-.494-.741-.562-1.181s-.005-.89.181-1.295c.186-.404.487-.745.865-.981.378-.235.817-.354 1.262-.342.615.034 1.192.309 1.605.766.414.457.63 1.058.603 1.673M263.724 301.028c.021.311-.021.623-.125.917-.105.294-.268.564-.481.792s-.47.41-.756.535c-.287.124-.595.188-.907.188s-.621-.064-.907-.188c-.286-.125-.544-.307-.756-.535a2.27 2.27 0 0 1-.481-.792c-.104-.294-.147-.606-.125-.917-.022-.312.021-.624.125-.918a2.27 2.27 0 0 1 .481-.792c.212-.228.47-.41.756-.534.286-.125.595-.189.907-.189s.62.064.907.189c.286.124.543.306.756.534s.376.498.481.792c.104.294.146.606.125.918M270.767 301.06c-.033.445-.195.869-.466 1.222-.272.353-.642.618-1.063.763s-.875.162-1.306.051-.821-.346-1.119-.676c-.299-.33-.494-.741-.562-1.181s-.004-.89.181-1.295c.186-.404.487-.745.865-.981.378-.235.817-.354 1.262-.342.614.037 1.189.313 1.602.769s.63 1.056.606 1.67M277.8 301.094c-.033.444-.195.869-.467 1.221-.272.353-.641.618-1.062.763s-.876.163-1.307.052-.82-.346-1.119-.677c-.299-.33-.494-.74-.562-1.18-.067-.441-.004-.891.182-1.295.186-.405.487-.746.865-.981.378-.236.816-.355 1.262-.343.614.037 1.189.313 1.601.769.413.456.631 1.056.607 1.671M284.832 301.116c-.031.445-.191.871-.462 1.225-.27.354-.639.621-1.06.768-.421.146-.876.166-1.308.056s-.822-.345-1.122-.675c-.3-.329-.496-.74-.564-1.181-.069-.44-.006-.891.18-1.296.185-.405.486-.747.865-.983.378-.235.817-.355 1.263-.343.612.037 1.185.312 1.598.766.412.453.631 1.05.61 1.663M291.876 301.149c-.031.442-.189.866-.457 1.22-.268.353-.634.62-1.052.769-.418.148-.87.171-1.301.065-.43-.105-.821-.334-1.123-.658-.303-.325-.504-.73-.578-1.168-.075-.437-.02-.886.157-1.293.178-.406.47-.752.841-.994.372-.243.806-.371 1.249-.37.622.023 1.209.292 1.634.747.424.455.65 1.06.63 1.682M298.908 301.182c.022.311-.021.624-.125.918s-.268.563-.481.792c-.212.228-.47.41-.756.534s-.595.189-.907.189-.62-.065-.907-.189c-.286-.124-.543-.306-.756-.534-.213-.229-.376-.498-.48-.792-.105-.294-.147-.607-.125-.918-.022-.311.02-.624.125-.918.104-.294.267-.563.48-.791.213-.229.47-.411.756-.535.287-.124.595-.189.907-.189s.621.065.907.189.544.306.756.535c.213.228.377.497.481.791s.147.607.125.918M305.94 301.215c-.03.443-.189.867-.457 1.22s-.633.621-1.051.769-.87.171-1.301.066-.821-.334-1.123-.659c-.303-.324-.504-.73-.578-1.167-.075-.437-.02-.887.157-1.293.178-.407.47-.752.841-.995.372-.242.806-.371 1.249-.369.622.023 1.209.291 1.634.746.424.456.65 1.06.629 1.682M312.973 301.248c-.031.445-.191.871-.462 1.225-.27.354-.639.621-1.06.768-.421.146-.876.166-1.308.056s-.822-.345-1.122-.674c-.3-.33-.496-.741-.564-1.181-.069-.441-.006-.892.18-1.297.185-.405.486-.747.865-.983.378-.235.817-.355 1.263-.343.612.037 1.185.312 1.598.766.412.453.631 1.05.61 1.663"/></g><path fill="#b92b24" d="M302.982 141.875c.767-.338 1.417-.893 1.871-1.598.453-.705.689-1.527.679-2.365.029-.545-.054-1.09-.243-1.602-.189-.511-.48-.979-.855-1.375s-.827-.711-1.329-.926c-.501-.215-1.041-.326-1.586-.326s-1.085.111-1.586.326c-.502.215-.954.53-1.329.926-.376.396-.666.864-.855 1.375-.189.512-.272 1.057-.243 1.602-.017.846.217 1.678.673 2.392a4.2843 4.2843 0 0 0 1.888 1.615c-6.182.928-5.906 7.64-5.906 7.64l14.617.066s.342-6.834-5.796-7.75"/><path fill="#000" d="M302.982 141.875c.767-.338 1.417-.893 1.871-1.598.453-.705.689-1.527.679-2.365.029-.545-.054-1.09-.243-1.602-.189-.511-.48-.979-.855-1.375s-.827-.711-1.329-.926c-.501-.215-1.041-.326-1.586-.326s-1.085.111-1.586.326c-.502.215-.954.53-1.329.926-.376.396-.666.864-.855 1.375-.189.512-.272 1.057-.243 1.602-.017.846.217 1.678.673 2.392a4.2843 4.2843 0 0 0 1.888 1.615c-6.182.928-5.906 7.64-5.906 7.64l14.617.066s.342-6.834-5.796-7.75" opacity=".1"/><path fill="#b92b24" d="m326.734 153.954-52.097-.236-.029 6.226 52.097.237z"/><path fill="#fff" d="m326.734 153.954-52.097-.236-.029 6.226 52.097.237z" opacity=".2"/><path fill="#b92b24" d="M135.207 186.223h-.519l-1.501.11c-.813.049-1.621.156-2.418.32-.517.073-1.029.172-1.535.298l-1.711.475c-2.913.894-5.661 2.255-8.136 4.03-3.272 2.374-6.003 5.414-8.016 8.92-1.182 2.021-2.123 4.174-2.804 6.414-.715 2.435-1.126 4.949-1.225 7.485-.066 1.333-.044 2.668.066 3.997 0 .673.188 1.347.276 2.031.074.69.204 1.373.387 2.043.992 4.43 3.007 8.566 5.882 12.08 2.875 3.513 6.531 6.306 10.678 8.156 3 1.295 6.217 2.017 9.483 2.131 3.373.185 6.75-.299 9.936-1.425l.971-.364h.133l.11.066 13.922 7.066-.409.353c-1.49-4.614-2.925-9.086-4.316-13.38v-.166l.121-.121c3.377-3.402 5.884-7.567 7.309-12.144 1.29-4.184 1.666-8.597 1.104-12.939-.501-3.859-1.742-7.585-3.655-10.974-1.649-2.911-3.776-5.523-6.292-7.728a30.793 30.793 0 0 0-6.834-4.35c-1.861-.802-3.8-1.413-5.785-1.821l-2.208-.365-1.601-.121-.972-.066h-.331c.11-.012.221-.012.331 0h.983l1.601.066 2.208.32c2.01.379 3.975.967 5.862 1.756 2.502 1.128 4.841 2.587 6.955 4.338 2.563 2.195 4.735 4.808 6.426 7.728 1.967 3.425 3.246 7.202 3.764 11.118.609 4.409.259 8.898-1.027 13.159a30.198 30.198 0 0 1-7.418 12.398l.066-.287c1.391 4.295 2.837 8.766 4.339 13.37l.209.673-.629-.32-13.921-7.055h.242l-.993.365a26.358 26.358 0 0 1-10.124 1.457c-3.336-.127-6.62-.876-9.682-2.208-5.84-2.501-10.7-6.849-13.833-12.376-1.442-2.553-2.495-5.306-3.124-8.17-.173-.686-.302-1.383-.387-2.086-.088-.696-.232-1.38-.265-2.065-.298-3.928.117-7.878 1.226-11.658.697-2.271 1.664-4.451 2.881-6.491 2.06-3.538 4.849-6.597 8.181-8.976 2.517-1.78 5.311-3.13 8.269-3.996l1.733-.442c.51-.118 1.026-.21 1.546-.276.805-.149 1.621-.238 2.439-.265l1.513-.055q.258-.0345.519-.033"/><path fill="#b92b24" d="M141.5 211.968h-2.043l-4.416-6.205v-4.073s-3.157-.199-2.782 5.133c.375 5.333 0 3.975 0 3.975s-6.701 0-7.253.607-.585 7.077-.663 10.687c-.042.87.208 1.729.71 2.441s1.228 1.236 2.061 1.489c.234.065.476.098.718.099 1.678 0 10.212-1.358 10.212-1.358h3.522zM147.34 210.875l-1.259 13.954h-3.488v-13.667zM188.95 494.967v-9.439l-16.925-.121-.143 14.274 1.049.078c4.669.298 23.758.739 26.893-.232 3.489-1.082-10.874-4.56-10.874-4.56"/><path fill="#263238" d="M200.221 498.643c0 .155-6.337.288-14.142.288s-14.142-.133-14.142-.288c0-.154 6.337-.287 14.142-.287s14.142.133 14.142.287M189.248 496.899c-.144-.077 0-.574.342-1.104s.806-.75.916-.64c.111.11-.121.53-.452.982-.332.453-.663.839-.806.762M190.33 497.517c-.155 0-.078-.618.253-1.203.332-.585.773-.938.895-.85.121.088-.078.585-.387 1.104s-.618 1.005-.761.949"/><path fill="#263238" d="M177.037 498.6c-.066 0-.32-.199-.684-.619-.445-.539-.94-1.034-1.479-1.479-.531-.424-1.162-.702-1.833-.806-.519-.066-.85 0-.883-.066s.287-.298.894-.342c.801-.017 1.583.248 2.208.75.586.477 1.079 1.057 1.457 1.711.254.486.387.806.32.851M189.303 495.122c.077.132-.21.464-.696.64-.485.177-.916.111-.938 0-.022-.11.32-.342.74-.496.419-.155.806-.276.894-.144M189.038 494.205c0 .166-.442.299-1.016.31s-1.026-.122-1.015-.276c.011-.155.463-.298 1.015-.31.552-.011.994.122 1.016.276"/><path fill="#b92b24" d="M230.626 494.967v-9.439l-16.925-.121-.143 14.131 1.049.077c4.67.298 23.769.883 26.893-.088 3.489-1.082-10.874-4.56-10.874-4.56"/><path fill="#263238" d="M241.897 498.666c0 .154-6.326.287-14.142.287s-14.131-.133-14.131-.287c0-.155 6.326-.287 14.131-.287s14.142.132 14.142.287M230.924 496.899c-.133-.077 0-.574.342-1.104s.806-.75.916-.64c.111.11-.121.53-.452.982-.332.453-.663.839-.806.762M232.006 497.517c-.144 0-.078-.618.265-1.203.342-.585.772-.938.894-.85.121.088-.088.585-.398 1.104-.309.519-.607 1.005-.761.949"/><path fill="#263238" d="M218.713 498.6c-.066 0-.309-.199-.684-.619-.445-.539-.94-1.034-1.479-1.479-.531-.424-1.162-.702-1.833-.806-.508-.066-.85 0-.883-.066s.287-.298.894-.342c.801-.017 1.583.248 2.208.75.589.474 1.083 1.055 1.457 1.711.254.486.387.806.32.851M230.979 495.122c.077.132-.21.464-.696.64-.485.177-.916.111-.938 0-.022-.11.32-.342.74-.496.419-.155.806-.276.894-.144M230.736 494.205c0 .166-.442.299-1.016.31s-1.015-.122-1.004-.276c.011-.155.452-.298 1.004-.31.552-.011 1.016.122 1.016.276"/><path fill="#ffbe9d" d="M292.98 214.662c-.442-.453-1.535-.232-1.535-.232.11-.636.11-1.285 0-1.921-.199-.618-1.59-.497-1.59-.497-.064-.521-.064-1.047 0-1.568.011-.115-.013-.231-.071-.332-.057-.101-.144-.181-.249-.231-.658-.268-1.365-.396-2.075-.375-.851-.607 2.594-5.432 3.875-6.977 1.28-1.546 1.048-2.749-.089-2.749-.784 0-4.802 4.637-6.039 6.193-1.236 1.557-4.515 5.885-4.625 2.429-.111-3.455-1.502-6.061-2.374-6.503-.872-.441-1.8.597-1.325 1.557.417 1.091.677 2.236.773 3.4.12.928.079 1.869-.121 2.782-.366 1.7-.865 3.369-1.491 4.991h-.088s-24.089 23.106-25.834 24.751c-1.556 1.48-32.866-1.755-39.148-2.418-2.134-.312-4.29-.459-6.447-.441-2.727.121-3.213.508-5.928.541-6.859.076-13.702.678-20.469 1.799-3.064.521-5.926 1.874-8.274 3.91-2.347 2.037-4.091 4.679-5.04 7.638-6.326 19.762-20.656 66.538-23.184 92.814-1.91 3.464-3.635 7.027-5.167 10.675-1.777 4.836-1.346 5.001-.75 5.112 1.612.298 3.444-8.38 4.129-6.282.684 2.098-3.478 10.344-1.789 10.587 2.208.309 3.964-8.832 4.173-9.56.21-.729 1.303-.497 1.104.187-.32.972-3.422 11.272-1.258 11.603 1.192.177 1.325-1.998 1.325-1.998s2.208-9.859 3.212-9.66c1.005.199-.066 6.017-.574 7.96s.199 2.926 1.237 2.451c.706-.331 2.395-6.238 2.859-8.159s1.623-7.242 3.179-4.162c1.557 3.08 3.92 4.869 4.891 4.913.219-.025.425-.115.593-.259.167-.143.287-.334.346-.546.058-.213.051-.438-.02-.647-.071-.208-.202-.391-.378-.524-.835-.816-1.553-1.745-2.131-2.76-.515-.791-.888-1.665-1.104-2.583-.444-1.832-.703-3.703-.772-5.587l-.177-1.104c2.473-12.243 9.594-48.178 19.872-71.13l4.217 8.677 1.833 6.425-11.239 27.744 47.936-.629-7.154-27.534 8.688-28.704c9.395.209 33.518.563 37.536-1.259 5.057-2.208 31.211-35.24 31.211-35.24 1.704-1.324 3.337-2.739 4.89-4.239 0 0 1.59-1.336.63-2.329"/><path fill="#b92b24" d="M167.135 294.094c1.391-4.747 8.533-28.218 8.533-28.218s3.511 19.132 2.584 21.44c-.853 1.975-1.861 3.88-3.014 5.696-8.103 12.332-7.044 18.504-7.044 18.504l48.963-1.491c.11-6.845-3.941-22.764-4.781-25.304-.839-2.539 1.955-10.852 1.955-10.852s5.52-5.619 5.321-8.512c-.105-2.598-.426-5.183-.961-7.728l29.808 1.104-.938-20.203-42.813-4.283c-1.491 4.206-14.97 2.141-14.97 2.141-14.551.486-15.456 3.158-21.506 7.861s-16.064 45.065-16.064 45.065z"/><path fill="#263238" d="M196.081 289.314c-.848.152-1.712.196-2.572.133-1.601 0-3.798-.111-6.215-.354-2.418-.243-4.604-.585-6.161-.894-.858-.111-1.7-.326-2.506-.64.863 0 1.725.081 2.573.243 1.567.198 3.742.474 6.149.717s4.592.409 6.171.519c.861.011 1.718.103 2.561.276M199.438 285.152c-.849.416-1.747.724-2.672.916-4.405 1.158-8.949 1.697-13.502 1.601-.942.031-1.884-.058-2.804-.265.93-.117 1.867-.165 2.804-.143 1.733-.055 4.118-.177 6.745-.486 2.628-.309 4.968-.751 6.624-1.104.92-.246 1.858-.419 2.805-.519M215.909 266.583c-.022.841-.137 1.678-.342 2.495-.287 1.534-.729 3.632-1.292 5.928s-1.104 4.416-1.589 5.851c-.196.822-.485 1.618-.862 2.374.062-.839.218-1.669.464-2.473.42-1.722.894-3.709 1.424-5.884s1.038-4.162 1.458-5.885c.149-.829.397-1.637.739-2.406M167.653 291.279c-2.554-.394-5.074-.981-7.54-1.755a52.45 52.45 0 0 1-7.397-2.318c2.553.4 5.073.987 7.541 1.755 2.52.587 4.992 1.362 7.396 2.318M219.221 257.387c-.416.071-.842.071-1.258 0-1.153-.119-2.286-.39-3.367-.806-1.806-.679-3.451-1.728-4.827-3.08-1.377-1.352-2.455-2.976-3.166-4.77-.787-1.973-1.122-4.096-.983-6.215.049-1.748.572-3.45 1.512-4.924.662-.993 1.65-1.724 2.794-2.065.305-.084.621-.125.938-.121h.331s-.463 0-1.203.298c-1.049.388-1.939 1.114-2.528 2.064-1.502 2.363-1.921 6.68-.32 10.709.745 1.9 1.911 3.606 3.411 4.99 1.229 1.133 2.644 2.044 4.184 2.694 1.445.571 2.948.982 4.482 1.226M244.956 258.336c-.277-3.385-.365-6.784-.265-10.179-.087-3.392.016-6.787.309-10.168.276 3.382.365 6.777.265 10.168.092 3.396-.011 6.795-.309 10.179"/><path fill="#ffbe9d" d="M204.461 235.483c.121-2.462.375-5.244.375-5.244s6.094-.674 6.459-6.966c.364-6.293 0-20.811 0-20.811l-11.04-5.652L188 206.448l1.888 31.464 11.239.717c.859.024 1.692-.294 2.317-.884.625-.589.991-1.403 1.017-2.262"/><path fill="#eb996e" d="M205.554 218.294s0 .122-.1.265c-.082.104-.188.187-.309.241-.121.053-.254.077-.386.068-.707 0-1.391-.817-1.634-1.766-.115-.46-.115-.942 0-1.402.023-.201.095-.393.211-.559.115-.166.271-.3.451-.391.149-.061.316-.061.464 0 .11.055.199.144.254.254.077.188 0 .309 0 .298s0-.11-.11-.221c-.058-.079-.143-.134-.239-.154-.095-.02-.195-.005-.28.044-.136.082-.248.197-.327.334s-.123.292-.126.45c-.093.411-.093.837 0 1.247.221.861.817 1.557 1.347 1.623.104.014.209.007.31-.022.1-.028.194-.077.275-.143.133-.089.177-.177.199-.166"/><path fill="#263238" d="M215.081 199.062c-.85-2.892-3.93-4.327-6.734-5.122-4.273-1.215-8.887-1.745-13.06-.21-4.174 1.534-9.186 4.228-9.186 8.832-2.462-.199-3.875 1.954-4.846 4.626-.621 1.627-.994 3.339-1.104 5.078-.309 6.028-1.998 14.352-5.907 18.768-2.208 2.462-5.266 4.162-6.524 7.231-1.104 2.661-.53 5.818-1.557 8.512-.916 2.374-2.937 4.063-4.416 6.127-1.507 2.342-2.394 5.029-2.578 7.808-.183 2.779.343 5.559 1.529 8.079 1.195 2.455 2.877 4.641 4.944 6.425 2.067 1.785 4.475 3.129 7.079 3.952 5.157 1.569 10.656 1.623 15.842.155 3.893-.931 7.524-2.731 10.621-5.266 3.169-2.588 5.345-6.192 6.16-10.201.784-4.504-.475-9.086-1.413-13.568-2.937-14.165-2.098-14.904 1.612-28.053.088-.232.132-.475.198-.706.067-.232.1-.343.144-.519.105-.52.161-1.049.166-1.579-.542.201-1.13.244-1.695.123-.566-.121-1.084-.401-1.496-.807-.412-.433-.7-.97-.832-1.553s-.104-1.191.081-1.759c.261-.622.649-1.182 1.14-1.644.49-.462 1.072-.816 1.709-1.039 1.225-.508 2.539-.773 3.742-1.336 2.55-1.214 4.317-3.732 5.52-6.37.99-1.829 1.295-3.95.861-5.984"/><path fill="#b92b24" d="M205.995 218.592c.234.345.426.715.574 1.104.332.696.773 1.678 1.259 2.815l.088.21h-.231l-1.104.099c-.762 0-1.403.144-2.153.133a.3997.3997 0 0 1-.176-.09c-.051-.045-.089-.101-.111-.164-.033-.101-.033-.209 0-.309.025-.149.058-.296.099-.442l.199-.784c.1-.523.255-1.033.463-1.523-.02.533-.098 1.062-.231 1.579l-.155.783c-.055.265-.155.674 0 .641.552 0 1.336-.122 2.065-.166l1.104-.099-.144.243c-.475-1.104-.872-2.142-1.104-2.86-.203-.366-.352-.761-.442-1.17"/><path fill="#263238" d="m168.194 311.516 48.963-1.491 21.307 83.176-3.919 95.407h-25.889l3.168-93.376-18.933-57.905 2.914 154.98-26.164.386-2.749-145.673c-.122-4.051-1.447-13.181-.95-17.2z"/><path fill="#455a64" d="M199.405 338.508c-.802.051-1.607.003-2.396-.143-1.48-.177-3.5-.486-5.719-.928-2.219-.441-4.206-.949-5.641-1.357-.768-.169-1.51-.436-2.208-.795 0-.166 3.599.695 8.015 1.589 4.416.895 7.971 1.469 7.949 1.634M234.28 483.375c0 .155-5.862.287-13.094.287-7.231 0-13.104-.132-13.104-.287 0-.154 5.862-.287 13.104-.287 7.243 0 13.094.122 13.094.287M195.574 488.277c0 .166-5.697.287-12.718.287-7.022 0-12.708-.121-12.708-.287 0-.165 5.697-.287 12.708-.287 7.01 0 12.718.133 12.718.287"/><path fill="#455a64" d="M192.195 487.88c-.154 0-.839-33.86-1.534-75.624-.696-41.765-1.104-75.646-.961-75.646.144 0 .85 33.848 1.535 75.635.684 41.786 1.126 75.635.96 75.635M230.802 483.375q-.018-.2265 0-.453v-1.324c0-1.193.089-2.904.155-5.079.154-4.416.375-10.83.651-18.69.596-15.81 1.435-37.603 2.352-61.659v-.651.077c-5.796-23.184-11.04-44.226-14.849-59.45l-4.416-18.007c-.508-2.108-.894-3.753-1.17-4.901-.133-.541-.221-.961-.298-1.281a1.95 1.95 0 0 1-.078-.442c.058.14.102.284.133.431.088.309.199.729.353 1.259.298 1.104.729 2.782 1.281 4.879 1.104 4.262 2.66 10.4 4.603 17.962 3.842 15.213 9.142 36.2 15.015 59.418v.728c-.983 24.056-1.877 45.838-2.528 61.648-.343 7.871-.63 14.241-.828 18.679-.111 2.208-.199 3.886-.254 5.079 0 .563-.066 1.004-.078 1.324.002.152-.013.304-.044.453"/><path fill="#455a64" d="M222.357 393.576c-1.86.612-3.776 1.037-5.719 1.27-2.385.408-4.416.695-5.332.739v-.22c.298.088.452.143.452.187 0 .045-.187 0-.497 0h-.662l.662-.198c.862-.254 2.893-.674 5.278-1.104 1.912-.415 3.861-.641 5.818-.674M221.904 396.744c-1.722.079-3.448.002-5.156-.231-1.724-.036-3.442-.224-5.133-.564 3.45-.281 6.923-.013 10.289.795"/><path fill="#000" d="M167.985 313.271c.58.745 1.31 1.359 2.143 1.802s1.751.706 2.692.77c1.972.234 3.967.197 5.929-.11 12.64-1.402 26.032-2.694 38.408-5.708-16.019.895-32.944.596-48.963 1.491l-.165 1.369M184.489 335.848l9.031 35.041-.629-33.562z" opacity=".2"/></svg>