<svg xmlns="http://www.w3.org/2000/svg" width="19" height="19" fill="none"><path stroke="#fff" stroke-linecap="round" stroke-linejoin="round" stroke-width="1.57554" d="M8.09192 16.5396c.13828.2394.33716.4383.57665.5766.23949.1382.51116.211.7877.211a1.576 1.576 0 0 0 .78773-.211c.2395-.1383.4383-.3372.5766-.5766M2.57092 12.0721a.788.788 0 0 0-.19547.4037.7878.7878 0 0 0 .34692.787.788.788 0 0 0 .4299.128H15.7559c.1527 0 .3021-.0443.43-.1275.128-.0833.229-.202.2907-.3416a.788.788 0 0 0 .0572-.4449.7885.7885 0 0 0-.1949-.4039c-1.0477-1.08-2.1584-2.22769-2.1584-5.77169a4.7267 4.7267 0 0 0-1.3843-3.34206 4.72641 4.72641 0 0 0-6.68415 0 4.7264 4.7264 0 0 0-1.38432 3.34206c0 3.544-1.11149 4.69169-2.15681 5.77089"/></svg>