<svg xmlns="http://www.w3.org/2000/svg" width="20" height="20" fill="none"><g stroke="#364153" stroke-linecap="round" stroke-linejoin="round" stroke-width="1.64948" clip-path="url(#a)"><path d="M9.07174 17.9212a1.65 1.65 0 0 0 .8247.2209c.28956 0 .57396-.0762.82466-.2209l5.773-3.2988c.2504-.1447.4585-.3526.6033-.603.1447-.2505.2211-.5345.2214-.8238V6.59801a1.65 1.65 0 0 0-.2214-.82374 1.6506 1.6506 0 0 0-.6033-.603l-5.773-3.2988a1.64935 1.64935 0 0 0-1.64936 0l-5.77292 3.2988a1.6495 1.6495 0 0 0-.8247 1.42674v6.59759c.0003.2893.07665.5733.2214.8238.14475.2504.35281.4583.6033.603zM9.89673 18.1446V9.89758"/><path d="m2.7132 5.77356 7.18315 4.12351 7.18315-4.12351M6.18549 3.52222l7.42231 4.24721"/></g><defs><clipPath id="a"><path fill="#fff" d="M0 0h19.7928v19.7928H0z"/></clipPath></defs></svg>