<svg xmlns="http://www.w3.org/2000/svg" width="16" height="16" fill="none"><path stroke="#364153" stroke-linecap="round" stroke-linejoin="round" stroke-width="1.33333" d="M12.6667 4.66667v-2a.6668.6668 0 0 0-.1953-.47141A.6667.6667 0 0 0 12 2H3.33333a1.3334 1.3334 0 0 0-.94281.39052 1.33337 1.33337 0 0 0 0 1.88562 1.3333 1.3333 0 0 0 .94281.39053h9.99997a.6666.6666 0 0 1 .4714.19526.6664.6664 0 0 1 .1953.4714V8m0 0h-2a1.3333 1.3333 0 0 0-1.3333 1.33333c0 .35363.1404.69277.3905.94277.25.2501.5892.3906.9428.3906h2A.66677.66677 0 0 0 14.6667 10V8.66667a.6668.6668 0 0 0-.1953-.47141A.6667.6667 0 0 0 14 8"/><path stroke="#364153" stroke-linecap="round" stroke-linejoin="round" stroke-width="1.33333" d="M2 3.33337v9.33333A1.3333 1.3333 0 0 0 3.33333 14h9.99997c.1768 0 .3464-.0702.4714-.1952A.6664.6664 0 0 0 14 13.3334v-2.6667"/></svg>