<svg xmlns="http://www.w3.org/2000/svg" width="24" height="24" fill="none"><path stroke="#181818" stroke-linecap="round" stroke-linejoin="round" stroke-width="1.97938" d="M15.8344 20.7826v-1.9793c0-1.0499-.4171-2.0568-1.1595-2.7991a3.9585 3.9585 0 0 0-2.7991-1.1595H5.93794a3.9585 3.9585 0 0 0-2.79913 1.1595 3.9583 3.9583 0 0 0-1.15944 2.7991v1.9793M8.90706 10.8863c2.18624 0 3.95854-1.77236 3.95854-3.95861s-1.7723-3.95857-3.95854-3.95857c-2.18626 0-3.95857 1.77231-3.95857 3.95857 0 2.18625 1.77231 3.95861 3.95857 3.95861M21.7731 20.7828v-1.9793a3.9587 3.9587 0 0 0-.8299-2.4223 3.959 3.959 0 0 0-2.139-1.4076M15.8351 3.09802a3.9588 3.9588 0 0 1 2.1452 1.40758 3.959 3.959 0 0 1 .8315 2.42729 3.959 3.959 0 0 1-.8315 2.42728 3.9586 3.9586 0 0 1-2.1452 1.40753"/></svg>