<svg xmlns="http://www.w3.org/2000/svg" width="20" height="20" fill="none"><path stroke="#364153" stroke-linecap="round" stroke-linejoin="round" stroke-width="1.64948" d="m1.64935 5.77451 3.63694-3.63693A1.6493 1.6493 0 0 1 6.45736 1.651h6.87804a1.649 1.649 0 0 1 .6341.12624 1.65 1.65 0 0 1 .537.36034l3.6369 3.63693M3.29886 9.89575v6.59765c0 .4374.17377.8569.4831 1.1663a1.6495 1.6495 0 0 0 1.1663.4831h9.89644c.4374 0 .857-.1738 1.1663-.4831.3093-.3094.4831-.7289.4831-1.1663V9.89575"/><path stroke="#364153" stroke-linecap="round" stroke-linejoin="round" stroke-width="1.64948" d="M12.3709 18.1449v-3.2988c0-.4375-.1737-.857-.4831-1.1663a1.649 1.649 0 0 0-1.1663-.4831H9.07213c-.43745 0-.85698.1737-1.1663.4831a1.6493 1.6493 0 0 0-.4831 1.1663v3.2988M1.64948 5.77246H18.1435M18.1435 5.77246v2.47411c0 .43745-.1738.85698-.4831 1.1663a1.6493 1.6493 0 0 1-1.1663.4831 2.227 2.227 0 0 1-1.3113-.51956.5772.5772 0 0 0-.6762 0 2.227 2.227 0 0 1-1.3113.51956 2.227 2.227 0 0 1-1.3113-.51956.5772.5772 0 0 0-.6762 0 2.227 2.227 0 0 1-1.31131.51956 2.2267 2.2267 0 0 1-1.31127-.51956.5773.5773 0 0 0-.67626 0 2.2267 2.2267 0 0 1-1.31127.51956 2.2267 2.2267 0 0 1-1.31128-.51956.5773.5773 0 0 0-.67626 0 2.2267 2.2267 0 0 1-1.31127.51956 1.6494 1.6494 0 0 1-1.6494-1.6494V5.77246"/></svg>