<svg xmlns="http://www.w3.org/2000/svg" width="20" height="20" fill="none"><path stroke="#364153" stroke-linecap="round" stroke-linejoin="round" stroke-width="1.64948" d="M15.2575 17.3197c1.5942 0 2.8865-1.2923 2.8865-2.8865 0-1.5941-1.2923-2.8864-2.8865-2.8864-1.5941 0-2.8864 1.2923-2.8864 2.8864 0 1.5942 1.2923 2.8865 2.8864 2.8865M4.53593 17.3197c1.59415 0 2.88646-1.2923 2.88646-2.8865 0-1.5941-1.29231-2.8864-2.88646-2.8864-1.59414 0-2.88645 1.2923-2.88645 2.8864 0 1.5942 1.29231 2.8865 2.88645 2.8865M12.3709 4.94774c.4555 0 .8247-.36923.8247-.8247s-.3692-.8247-.8247-.8247-.8247.36923-.8247.8247.3692.8247.8247.8247M9.89684 14.4339v-2.8864L7.42273 9.07335l3.29877-2.47411 1.6494 2.47411h1.6494"/></svg>