<svg xmlns="http://www.w3.org/2000/svg" width="20" height="20" fill="none"><path stroke="#364153" stroke-linecap="round" stroke-linejoin="round" stroke-width="1.64948" d="M10.078 1.64844h-.3629a1.6494 1.6494 0 0 0-1.64941 1.6494v.14845a1.6493 1.6493 0 0 1-.8247 1.42673l-.35462.20618a1.6495 1.6495 0 0 1-1.6494 0l-.12371-.06598a1.6494 1.6494 0 0 0-2.25143.60203l-.18144.31339a1.6494 1.6494 0 0 0 .60203 2.25144l.12371.08247a1.6494 1.6494 0 0 1 .8247 1.41848v.42057a1.6496 1.6496 0 0 1-.21933.8285 1.65 1.65 0 0 1-.60537.6065l-.12371.0742a1.6495 1.6495 0 0 0-.76672 1.0012 1.6496 1.6496 0 0 0 .16469 1.2503l.18144.3134c.219.3781.57907.6538 1.00118.7667a1.6499 1.6499 0 0 0 1.25025-.1647l.12371-.066a1.649 1.649 0 0 1 .8247-.221c.28953 0 .57396.0762.8247.221l.35462.2062a1.6494 1.6494 0 0 1 .8247 1.4267v.1485c0 .4374.17378.857.4831 1.1663a1.6495 1.6495 0 0 0 1.16631.4831h.3629c.4374 0 .8569-.1738 1.1663-.4831.3093-.3093.4831-.7289.4831-1.1663v-.1485c.0003-.2892.0766-.5733.2214-.8237.1447-.2504.3528-.4584.6033-.603l.3546-.2062c.2507-.1448.5352-.221.8247-.221s.574.0762.8247.221l.1237.066c.3785.2183.8281.2775 1.2502.1647a1.6492 1.6492 0 0 0 1.0012-.7667l.1815-.3217c.2183-.3785.2775-.8281.1647-1.2502a1.6497 1.6497 0 0 0-.7668-1.0012l-.1237-.066a1.6495 1.6495 0 0 1-.6053-.6065 1.6494 1.6494 0 0 1-.2194-.8285v-.41232a1.649 1.649 0 0 1 .2194-.82842 1.649 1.649 0 0 1 .6053-.60656l.1237-.07422c.3781-.219.6539-.57908.7668-1.00119a1.6499 1.6499 0 0 0-.1647-1.25025l-.1815-.31339a1.6492 1.6492 0 0 0-1.0012-.76672 1.6493 1.6493 0 0 0-1.2502.16469l-.1237.06598a1.6494 1.6494 0 0 1-1.6494 0l-.3546-.20618a1.649 1.649 0 0 1-.6033-.60299 1.649 1.649 0 0 1-.2214-.82374v-.14845c0-.43745-.1738-.85698-.4831-1.1663a1.6496 1.6496 0 0 0-1.1663-.4831"/><path stroke="#364153" stroke-linecap="round" stroke-linejoin="round" stroke-width="1.64948" d="M9.89683 12.3714c1.36637 0 2.47407-1.1077 2.47407-2.47408 0-1.36641-1.1077-2.4741-2.47407-2.4741-1.36641 0-2.4741 1.10769-2.4741 2.4741 0 1.36638 1.10769 2.47408 2.4741 2.47408"/></svg>