<svg xmlns="http://www.w3.org/2000/svg" width="33" height="31" fill="none"><g fill="#ff7771" clip-path="url(#a)"><path d="M15.8388 17.6268c-1.5179 0-12.87645-2.4334-15.78595-.6071-.40477 4.0476 1.33573 12.4466 11.53585 13.6609h17.6074c-1.5273-3.093-6.3751-8.1966-7.893-9.4109-1.5178-1.2143-1.2143-3.9465 0-5.4643 1.2143-1.5179 3.9465-1.2143 5.768-2.1251 1.8214-.9107 3.0357-2.6714 3.0357-4.85718 0-2.73218-2.125-6.07151-5.7679-5.76794-3.6429.30358-5.4644 3.94649-5.1608 5.76794.3036 1.82148 2.125 4.55358 0 6.98228-2.125 2.4286-1.8214 1.8214-3.3393 1.8214"/><circle cx="31.1164" cy="19.5804" r="1.36602"/><circle cx="7.58923" cy="3.3388" r="3.33917"/></g><defs><clipPath id="a"><path fill="#fff" d="M0 0h32.4826v30.6804H0z"/></clipPath></defs></svg>